# xmcd
#
# Track frame offsets:
# 150
# 16725
# 35431
# 56025
# 67708
#
# Disc length: 1189 seconds
#
# Revision: 1
# Processed by: cddbd v1.5.2PL0 Copyright (c) Steve Scherf et al.
# Submitted via: CedeCatalogueitor 2.6.0.6 http://personales.ya.com/cdcatalogueitor
#
DISCID=3304a305
DTITLE=Bella And Sebastian - The Blues Are Still Blue EP
DYEAR=1900
DGENRE=
TTITLE0=The Blues Are Still Blue
TTITLE1=The Blues Are Still Blue
TTITLE2=The Life Pursuit
TTITLE3=Mr Richard
TTITLE4=Whiskey In The Jar
EXTD=
EXTT0=
EXTT1=
EXTT2=
EXTT3=
EXTT4=
PLAYORDER=
